ply
format ascii 1.0
comment Created by Blender 3.0.0 - www.blender.org
element vertex 18
property float x
property float y
property float z
property float s
property float t
element face 12
property list uchar uint vertex_indices
end_header
-0.250000 -0.250000 -0.000000 0.000000 0.100000
-0.250000 0.250000 -0.020000 1.000000 0.000000
-0.250000 -0.250000 -0.020000 0.000000 0.000000
-0.250000 0.250000 0.000000 0.000000 0.100000
0.250000 0.250000 -0.020000 1.000000 0.000000
-0.250000 0.250000 -0.020000 0.000000 0.000000
0.250000 0.250000 0.000000 1.000000 0.100000
0.250000 -0.250000 -0.020000 0.000000 0.000000
0.250000 -0.250000 -0.000000 1.000000 0.100000
0.250000 -0.250000 -0.020000 1.000000 0.000000
0.250000 0.250000 -0.020000 1.000000 1.000000
-0.250000 0.250000 -0.020000 0.000000 1.000000
-0.250000 0.250000 0.000000 0.000000 1.000000
0.250000 -0.250000 -0.000000 1.000000 0.000000
0.250000 0.250000 0.000000 1.000000 1.000000
-0.250000 0.250000 0.000000 1.000000 0.100000
0.250000 -0.250000 -0.000000 0.000000 0.100000
-0.250000 -0.250000 -0.000000 0.000000 0.000000
3 0 1 2
3 3 4 5
3 6 7 4
3 8 2 9
3 10 2 11
3 12 13 14
3 0 15 1
3 3 6 4
3 6 16 7
3 8 0 2
3 10 9 2
3 12 17 13
